<svg xmlns="http://www.w3.org/2000/svg" viewBox="0 0 192 192" role="img" aria-label="HO Seguridad">
  <rect width="192" height="192" rx="36" fill="#0A0A0A"/>
  <rect x="20" y="20" width="152" height="152" rx="28" fill="#111827"/>
  <path d="M96 38L146 58V92C146 124 124 150 96 160C68 150 46 124 46 92V58L96 38Z" fill="#22C55E"/>
  <path d="M96 58L126 70V93C126 111 114 128 96 136C78 128 66 111 66 93V70L96 58Z" fill="#0A0A0A"/>
  <path d="M96 72L109 77V93C109 101 104 109 96 113C88 109 83 101 83 93V77L96 72Z" fill="#22C55E"/>
</svg>
